<svg width="11" height="7" xmlns="http://www.w3.org/2000/svg">

 <g>
  <title>background</title>
  <rect fill="none" id="canvas_background" height="402" width="582" y="-1" x="-1"/>
 </g>
 <g>
  <title>Layer 1</title>
  <path id="svg_1" d="m10.676,5.615l-1.092,1.018a0.418,0.418 0 0 1 -0.296,0.117a0.418,0.418 0 0 1 -0.296,-0.117l-3.492,-3.275l-3.492,3.275a0.418,0.418 0 0 1 -0.296,0.117a0.418,0.418 0 0 1 -0.296,-0.117l-1.092,-1.018a0.371,0.371 0 0 1 -0.125,-0.28c0,-0.11 0.042,-0.203 0.125,-0.281l4.88,-4.57a0.418,0.418 0 0 1 0.296,-0.118c0.114,0 0.213,0.04 0.296,0.118l4.88,4.57a0.371,0.371 0 0 1 0.125,0.28a0.371,0.371 0 0 1 -0.125,0.281z" fill-rule="nonzero" fill="#f13128"/>
 </g>
</svg>